# xmcd CD database file
#
# Track frame offsets:
#	150
#	18426
#	40508
#	58939
#	76069
#	93281
#	109817
#	132734
#	150663
#	168022
#
# Disc length: 2530 seconds
#
# Revision: 0
# Processed by: cddbd v1.5.2PL0 Copyright (c) Steve Scherf et al.
# Submitted via: CDex 1.79
#
DISCID=7209e00a
DTITLE=Jutta Hipp - at the hickory house -- CD1
DYEAR=1956
DGENRE=Jazz
TTITLE0=take me in your arms
TTITLE1=dear old Stockholm
TTITLE2=Billies bounce
TTITLE3=I'll remember april
TTITLE4=lady bird
TTITLE5=mad about the boy
TTITLE6=ain't misbehavin'
TTITLE7=these foolish things
TTITLE8=jeepers creepers
TTITLE9=the moon was yellow
EXTD=YEAR: 1956
EXTT0=
EXTT1=
EXTT2=
EXTT3=
EXTT4=
EXTT5=
EXTT6=
EXTT7=
EXTT8=
EXTT9=
PLAYORDER=
